{
  "id": "20260419-152826-824a6b",
  "title": "枕戈待旦",
  "status": "published",
  "error": "",
  "output": "/Users/mac/.openclaw/workspace/jimeng_runs/20260419-152826-824a6b/final_with_external_subtitles.mp4",
  "created_at": 1776583706.216225,
  "updated_at": 1776585939.393204,
  "input": {
    "first_prompt": "9:16竖屏，电影感写实风格，深夜营地宿舍内，一位守夜者和衣而卧，床边整齐放着旧式行囊与靴子，窗外冷蓝月光切入室内，台灯散出微弱暖光，冷暖对比强烈，空气里有轻微尘埃与薄雾，画面克制安静，低饱和，高反差，细腻皮肤与织物质感，浅景深，中近景，情绪是压住呼吸的待命感",
    "last_prompt": "9:16竖屏，电影感写实风格，同一位守夜者在黎明前的天光里站到屋外空地，背影笔直，行囊已背起，远处地平线透出微弱晨曦，夜色未退但天边开始发白，地面有潮湿反光，薄雾缓慢流动，冷色逐渐过渡到克制的金灰色，画面更开阔，层次分明，远景与人物形成对照，情绪从压抑静默递进到坚定清醒",
    "video_prompt": "围绕枕戈待旦的主题展开，镜头从室内低机位慢推开始，掠过床边整齐摆放的行囊与靴子，停在守夜者微微睁开的眼睛上；随后极慢摇镜到窗外月色，再轻微拉焦回到人物起身整理衣物的手部细节；中段用一次平稳跟拍连接室内到门口，门被推开时冷风与薄雾进入，节奏略微提升；接着用升格表现呼吸、衣角、鞋底踏地与背起行囊的瞬间；后半段转为室外广角缓慢后拉，人物走向空地并停下，天边出现时间流逝式晨光变化，色温从冷蓝过渡到金灰；结尾以轻微升镜收束，留下背影与初亮天际，整体节奏克制、沉静、有力量，光影层次丰富，真实电影质感，无夸张特效，无字幕区遮挡"
  },
  "video": {
    "mode": "frames2video",
    "audio_reference": ""
  },
  "post": {
    "mode": "title_card",
    "title_card_text": "天亮之前 总有人先醒着",
    "resolved_mode": "title_card"
  },
  "publish": {
    "title": "枕戈待旦的凌晨像一口无声的钟",
    "description": "从深夜到破晓，真正打动人的不是喧哗，而是安静里那股不退的劲 #枕戈待旦 #电影感短片 #氛围感视频",
    "cover": "first",
    "auto_publish": true
  },
  "first_submit_id": "b9646dfa553f2afc",
  "last_submit_id": "5866ac4e8540da99",
  "video_submit_id": "46d189fc19e7039d",
  "subtitle_mode": "external_only",
  "subtitle_error": "ffmpeg version 8.1 Copyright (c) 2000-2026 the FFmpeg developers\n  built with Apple clang version 21.0.0 (clang-2100.0.123.102)\n  configuration: --prefix=/opt/homebrew/Cellar/ffmpeg/8.1 --enable-shared --enable-pthreads --enable-version3 --cc=clang --host-cflags= --host-ldflags= --enable-ffplay --enable-gpl --enable-libsvtav1 --enable-libopus --enable-libx264 --enable-libmp3lame --enable-libdav1d --enable-libvmaf --enable-libvpx --enable-libx265 --enable-openssl --enable-videotoolbox --enable-audiotoolbox --enable-neon\n  libavutil      60. 26.100 / 60. 26.100\n  libavcodec     62. 28.100 / 62. 28.100\n  libavformat    62. 12.100 / 62. 12.100\n  libavdevice    62.  3.100 / 62.  3.100\n  libavfilter    11. 14.100 / 11. 14.100\n  libswscale      9.  5.100 /  9.  5.100\n  libswresample   6.  3.100 /  6.  3.100\n[in#0 @ 0x83d014000] Unknown cover type: 0x1.\nInput #0, mov,mp4,m4a,3gp,3g2,mj2, from '/Users/mac/.openclaw/workspace/jimeng_runs/20260419-152826-824a6b/final.mp4':\n  Metadata:\n    major_brand     : isom\n    minor_version   : 512\n    compatible_brands: isomiso2avc1mp41\n    LvMetaInfo      : {\"data\":{\"os\":\"\",\"product\":\"dreamina\",\"exportType\":\"generation\",\"videoId\":\"0\"}}\n    UserComment     : {\"aigc_label_type\":0,\"source_info\":\"dreamina\"}\n    comment         : vid:v02870g10004d7i8lrqljht9vnchs7dg\n    encoder         : Lavf58.76.100\n  Duration: 00:00:15.07, start: 0.000000, bitrate: 6419 kb/s\n  Stream #0:0[0x1](und): Audio: aac (LC) (mp4a / 0x6134706D), 44100 Hz, stereo, fltp, 128 kb/s (default)\n    Metadata:\n      handler_name    : SoundHandler\n  Stream #0:1[0x2](und): Video: h264 (High) (avc1 / 0x31637661), yuv420p(progressive), 720x1280 [SAR 1:1 DAR 9:16], 6303 kb/s, 24.04 fps, 60 tbr, 15360 tbn (default)\n    Metadata:\n      handler_name    : VideoHandler\n[AVFilterGraph @ 0x83d064480] No such filter: 'subtitles'\nError opening output file /Users/mac/.openclaw/workspace/jimeng_runs/20260419-152826-824a6b/final_mastered.mp4.\nError opening output files: Filter not found",
  "publish_config": "/Users/mac/.openclaw/workspace/jimeng_runs/20260419-152826-824a6b/douyin_publish.json",
  "publish_result": {
    "started_at": 1776585877.105835,
    "ended_at": 1776585939.392821,
    "elapsed_sec": 62.29,
    "status": "ok",
    "exit_code": 0,
    "error": "",
    "link": "https://creator.douyin.com/goofy/douyin_creator_pc/mono/prefetch/creator_content/manage/prefetch.json\",\"/creator-micro/work-management/work-detail/:id\":\"https://creator.douyin.com/goofy/douyin_creator_pc/mono/prefetch/work-management/work-detail/prefetch.json\"},r=Object.keys(t).find(function(e){return",
    "backend": "cdp",
    "endpoint": "http://127.0.0.1:9222",
    "config": "/Users/mac/.openclaw/workspace/jimeng_runs/20260419-152826-824a6b/douyin_publish.json"
  }
}